<mxfile host="65bd71144e" modified="2024-04-22T06:14:29.530Z" agent="Mozilla/5.0 (Windows NT 10.0; Win64; x64) AppleWebKit/537.36 (KHTML, like Gecko) Code/1.88.1 Chrome/120.0.6099.291 Electron/28.2.8 Safari/537.36" version="24.2.7" etag="LiX_5APtxEV7OPfjjjJd" type="embed">
    <diagram id="7huPDzgB2q-7nMH9h2cz" name="第1頁">
        <mxGraphModel dx="562" dy="787" grid="1" gridSize="10" guides="1" tooltips="1" connect="1" arrows="1" fold="1" page="1" pageScale="1" pageWidth="827" pageHeight="1169" math="0" shadow="0">
            <root>
                <mxCell id="0"/>
                <mxCell id="1" parent="0"/>
                <mxCell id="10" value="&lt;span style=&quot;color: rgb(212, 212, 212); font-family: -apple-system, BlinkMacSystemFont, &amp;quot;Segoe WPC&amp;quot;, &amp;quot;Segoe UI&amp;quot;, system-ui, Ubuntu, &amp;quot;Droid Sans&amp;quot;, sans-serif; font-size: 14px; text-align: start;&quot;&gt;申請人&lt;/span&gt;" style="shape=umlActor;verticalLabelPosition=bottom;verticalAlign=top;html=1;" parent="1" vertex="1">
                    <mxGeometry x="130" y="100" width="30" height="60" as="geometry"/>
                </mxCell>
                <mxCell id="11" value="&lt;span style=&quot;color: rgb(212, 212, 212); font-family: -apple-system, BlinkMacSystemFont, &amp;quot;Segoe WPC&amp;quot;, &amp;quot;Segoe UI&amp;quot;, system-ui, Ubuntu, &amp;quot;Droid Sans&amp;quot;, sans-serif; font-size: 14px; text-align: start;&quot;&gt;政府機關人員&lt;/span&gt;" style="shape=umlActor;verticalLabelPosition=bottom;verticalAlign=top;html=1;" parent="1" vertex="1">
                    <mxGeometry x="130" y="340" width="30" height="60" as="geometry"/>
                </mxCell>
                <mxCell id="12" value="&lt;span style=&quot;color: rgb(212, 212, 212); font-family: -apple-system, BlinkMacSystemFont, &amp;quot;Segoe WPC&amp;quot;, &amp;quot;Segoe UI&amp;quot;, system-ui, Ubuntu, &amp;quot;Droid Sans&amp;quot;, sans-serif; font-size: 14px; text-align: start;&quot;&gt;第三方金融機構&lt;/span&gt;" style="shape=umlActor;verticalLabelPosition=bottom;verticalAlign=top;html=1;" parent="1" vertex="1">
                    <mxGeometry x="680" y="110" width="30" height="60" as="geometry"/>
                </mxCell>
                <mxCell id="13" value="&lt;span style=&quot;color: rgb(212, 212, 212); font-family: -apple-system, BlinkMacSystemFont, &amp;quot;Segoe WPC&amp;quot;, &amp;quot;Segoe UI&amp;quot;, system-ui, Ubuntu, &amp;quot;Droid Sans&amp;quot;, sans-serif; font-size: 14px; text-align: start;&quot;&gt;健保局&lt;/span&gt;" style="shape=umlActor;verticalLabelPosition=bottom;verticalAlign=top;html=1;" parent="1" vertex="1">
                    <mxGeometry x="680" y="260" width="30" height="60" as="geometry"/>
                </mxCell>
                <mxCell id="14" value="&lt;span style=&quot;color: rgb(212, 212, 212); font-family: -apple-system, BlinkMacSystemFont, &amp;quot;Segoe WPC&amp;quot;, &amp;quot;Segoe UI&amp;quot;, system-ui, Ubuntu, &amp;quot;Droid Sans&amp;quot;, sans-serif; font-size: 14px; text-align: start;&quot;&gt;其他金融負責單位&lt;/span&gt;" style="shape=umlActor;verticalLabelPosition=bottom;verticalAlign=top;html=1;" parent="1" vertex="1">
                    <mxGeometry x="680" y="420" width="30" height="60" as="geometry"/>
                </mxCell>
                <mxCell id="15" value="&lt;p style=&quot;margin:0px;margin-top:4px;text-align:center;&quot;&gt;&lt;br&gt;&lt;b&gt;登記&lt;/b&gt;&lt;/p&gt;" style="verticalAlign=top;align=left;overflow=fill;fontSize=12;fontFamily=Helvetica;html=1;" parent="1" vertex="1">
                    <mxGeometry x="200" y="30" width="370" height="540" as="geometry"/>
                </mxCell>
                <mxCell id="16" value="&#xa;&lt;span style=&quot;color: rgb(212, 212, 212); font-family: -apple-system, BlinkMacSystemFont, &amp;quot;Segoe WPC&amp;quot;, &amp;quot;Segoe UI&amp;quot;, system-ui, Ubuntu, &amp;quot;Droid Sans&amp;quot;, sans-serif; font-size: 14px; font-style: normal; font-variant-ligatures: normal; font-variant-caps: normal; font-weight: 400; letter-spacing: normal; orphans: 2; text-align: start; text-indent: 0px; text-transform: none; widows: 2; word-spacing: 0px; -webkit-text-stroke-width: 0px; text-decoration-thickness: initial; text-decoration-style: initial; text-decoration-color: initial; float: none; display: inline !important;&quot;&gt;申請金額&lt;/span&gt;&#xa;&#xa;" style="ellipse;whiteSpace=wrap;html=1;" parent="1" vertex="1">
                    <mxGeometry x="310" y="90" width="140" height="70" as="geometry"/>
                </mxCell>
                <mxCell id="17" value="&#xa;&lt;span style=&quot;color: rgb(212, 212, 212); font-family: -apple-system, BlinkMacSystemFont, &amp;quot;Segoe WPC&amp;quot;, &amp;quot;Segoe UI&amp;quot;, system-ui, Ubuntu, &amp;quot;Droid Sans&amp;quot;, sans-serif; font-size: 14px; font-style: normal; font-variant-ligatures: normal; font-variant-caps: normal; font-weight: 400; letter-spacing: normal; orphans: 2; text-align: start; text-indent: 0px; text-transform: none; widows: 2; word-spacing: 0px; -webkit-text-stroke-width: 0px; text-decoration-thickness: initial; text-decoration-style: initial; text-decoration-color: initial; float: none; display: inline !important;&quot;&gt;資訊確認與審核&lt;/span&gt;&#xa;&#xa;" style="ellipse;whiteSpace=wrap;html=1;" parent="1" vertex="1">
                    <mxGeometry x="315" y="210" width="140" height="70" as="geometry"/>
                </mxCell>
                <mxCell id="18" value="&lt;span style=&quot;color: rgb(212, 212, 212); font-family: -apple-system, BlinkMacSystemFont, &amp;quot;Segoe WPC&amp;quot;, &amp;quot;Segoe UI&amp;quot;, system-ui, Ubuntu, &amp;quot;Droid Sans&amp;quot;, sans-serif; font-size: 14px; text-align: start;&quot;&gt;生成普發名單&lt;/span&gt;" style="ellipse;whiteSpace=wrap;html=1;" parent="1" vertex="1">
                    <mxGeometry x="310" y="335" width="140" height="70" as="geometry"/>
                </mxCell>
                <mxCell id="19" value="&lt;span style=&quot;color: rgb(212, 212, 212); font-family: -apple-system, BlinkMacSystemFont, &amp;quot;Segoe WPC&amp;quot;, &amp;quot;Segoe UI&amp;quot;, system-ui, Ubuntu, &amp;quot;Droid Sans&amp;quot;, sans-serif; font-size: 14px; text-align: start;&quot;&gt;金額發放&lt;/span&gt;" style="ellipse;whiteSpace=wrap;html=1;" parent="1" vertex="1">
                    <mxGeometry x="310" y="440" width="140" height="70" as="geometry"/>
                </mxCell>
                <mxCell id="20" style="edgeStyle=none;html=1;exitX=0;exitY=0.3333333333333333;exitDx=0;exitDy=0;exitPerimeter=0;entryX=1;entryY=0.5;entryDx=0;entryDy=0;" parent="1" source="12" target="18" edge="1">
                    <mxGeometry relative="1" as="geometry"/>
                </mxCell>
                <mxCell id="21" style="edgeStyle=none;html=1;exitX=0;exitY=0.3333333333333333;exitDx=0;exitDy=0;exitPerimeter=0;" parent="1" source="13" edge="1">
                    <mxGeometry relative="1" as="geometry">
                        <mxPoint x="450" y="370" as="targetPoint"/>
                    </mxGeometry>
                </mxCell>
                <mxCell id="22" style="edgeStyle=none;html=1;exitX=1;exitY=0.3333333333333333;exitDx=0;exitDy=0;exitPerimeter=0;entryX=0;entryY=0.5;entryDx=0;entryDy=0;" parent="1" source="11" target="17" edge="1">
                    <mxGeometry relative="1" as="geometry"/>
                </mxCell>
                <mxCell id="23" style="edgeStyle=none;html=1;exitX=1;exitY=0.3333333333333333;exitDx=0;exitDy=0;exitPerimeter=0;entryX=0;entryY=0.5;entryDx=0;entryDy=0;" parent="1" source="10" target="16" edge="1">
                    <mxGeometry relative="1" as="geometry"/>
                </mxCell>
                <mxCell id="24" style="edgeStyle=none;html=1;exitX=0;exitY=0.3333333333333333;exitDx=0;exitDy=0;exitPerimeter=0;entryX=1;entryY=0.5;entryDx=0;entryDy=0;" parent="1" source="14" target="19" edge="1">
                    <mxGeometry relative="1" as="geometry"/>
                </mxCell>
            </root>
        </mxGraphModel>
    </diagram>
</mxfile>